<?xml version="1.0" encoding="utf-8"?>
<!-- Generator: Adobe Illustrator 24.0.1, SVG Export Plug-In . SVG Version: 6.00 Build 0)  -->
<svg version="1.1" id="Layer_1" xmlns="http://www.w3.org/2000/svg" xmlns:xlink="http://www.w3.org/1999/xlink" x="0px" y="0px"
	 viewBox="0 0 231.3 293" style="enable-background:new 0 0 231.3 293;" xml:space="preserve">
<style type="text/css">
	.st0{fill:#FFFFFF;}
	.st1{fill-rule:evenodd;clip-rule:evenodd;fill:#2B3990;}
	.st2{fill:#2B3990;}
	.st3{fill-rule:evenodd;clip-rule:evenodd;fill:#FFFFFF;}
</style>
<rect x="-591.1" y="-70.2" class="st0" width="468.9" height="468.9"/>
<g>
	<g>
		<path class="st1" d="M-369.3,26.3c0,0,4.5-6.6,11-1.6c2.5,1.9,3.7-0.3,4.4-0.7c0.3-0.3,4.7-3.5,9.6,1.9c5,5.4,58.3,79.8,58.3,79.8
			s7.3,6.2,1.3,18.5c-5.8,12.3-23.8,51.5-23.8,51.5s-2.1,3,1.8,6.5c4.1,3.5,13.5,17.4,13.5,17.4l-57.8-0.4c0,0-3.6-0.1-4.5-5
			c-0.9-5-1.3-6.6-1.3-6.6l-2,9.3c0,0-1.3,2.7-3.8,2.3c-2.6-0.3-57.6,0.6-57.6,0.6l14.6-18.9c0,0,2-2.1,0.7-5.4
			c-1.6-3.3-24.4-53.1-24.4-53.1s-4.8-7.6,1.8-16.2C-420.9,97.5-369.3,26.3-369.3,26.3L-369.3,26.3z M-356.5,76.4L-356.5,76.4
			l-7.2,65.8c0,0,5,3.3,7.1,8.3c1.1-3.8,6.9-8.6,6.9-8.6L-356.5,76.4z"/>
		<path class="st2" d="M-392,221.3h-13.2v-4.1c0-1.9-0.2-3-0.5-3.6c-0.3-0.5-0.9-0.7-1.6-0.7c-0.9,0-1.6,0.3-2,1.1
			c-0.4,0.6-0.7,1.7-0.7,3.1c0,1.8,0.2,3.2,0.7,4.1c0.5,0.9,1.8,2,4,3.3c6.3,3.7,10.2,6.7,11.8,9.2c1.6,2.4,2.5,6.2,2.5,11.5
			c0,3.9-0.5,6.7-1.4,8.5c-0.9,1.9-2.6,3.3-5.2,4.6c-2.6,1.2-5.6,1.8-9.1,1.8c-3.8,0-6.9-0.6-9.6-2.1c-2.7-1.4-4.4-3.2-5.2-5.4
			c-0.8-2.2-1.3-5.3-1.3-9.3v-3.6h13.2v6.6c0,2,0.2,3.3,0.6,3.9c0.3,0.6,1,0.9,2,0.9c0.9,0,1.6-0.4,2-1.1c0.5-0.7,0.7-1.8,0.7-3.2
			c0-3.2-0.4-5.3-1.3-6.3c-0.9-1-3.1-2.6-6.6-4.9c-3.5-2.4-5.8-4-6.9-5c-1.1-1.1-2.1-2.5-2.9-4.4c-0.7-1.9-1.1-4.2-1.1-7.1
			c0-4.1,0.6-7.1,1.6-9.1c1.1-1.9,2.8-3.4,5.1-4.5c2.4-1.1,5.2-1.6,8.6-1.6c3.7,0,6.8,0.6,9.3,1.8c2.6,1.2,4.3,2.7,5.1,4.5
			c0.8,1.8,1.3,4.8,1.3,9.1V221.3z M-386.3,204.9L-386.3,204.9h23.5v10.8h-9.4v10.3h8.8v10.2h-8.8v11.9h10.4v10.8h-24.5V204.9z
			 M-324.2,204.9L-324.2,204.9l-7.2,54h-21.4l-8.2-54h14.9c1.7,14.9,2.9,27.5,3.7,37.8c0.8-10.4,1.6-19.7,2.4-27.7l0.9-10.1H-324.2z
			 M-298.3,204.9L-298.3,204.9l8.1,54h-14.5l-0.7-9.7h-5.1l-0.8,9.7h-14.6l7.2-54H-298.3z M-305.8,239.7L-305.8,239.7
			c-0.7-6.2-1.4-13.7-2.1-22.8c-1.4,10.5-2.3,18-2.6,22.8H-305.8z"/>
	</g>
	<text transform="matrix(1.3024 0 0 1 -423.0979 292.9955)" class="st2" style="font-family:'Impact'; font-size:38.4272px;">GROUP</text>
</g>
<g>
	<g>
		<path class="st3" d="M102,26.3c0,0,4.5-6.6,11-1.6c2.5,1.9,3.7-0.3,4.4-0.7c0.3-0.3,4.7-3.5,9.6,1.9c5,5.4,58.3,79.8,58.3,79.8
			s7.3,6.2,1.3,18.5c-5.8,12.3-23.8,51.5-23.8,51.5s-2.1,3,1.8,6.5c4.1,3.5,13.5,17.4,13.5,17.4l-57.8-0.4c0,0-3.6-0.1-4.5-5
			c-0.9-5-1.3-6.6-1.3-6.6l-2,9.3c0,0-1.3,2.7-3.8,2.3c-2.6-0.3-57.6,0.6-57.6,0.6l14.6-18.9c0,0,2-2.1,0.7-5.4
			c-1.6-3.3-24.4-53.1-24.4-53.1s-4.8-7.6,1.8-16.2C50.4,97.5,102,26.3,102,26.3L102,26.3z M114.8,76.4L114.8,76.4l-7.2,65.8
			c0,0,5,3.3,7.1,8.3c1.1-3.8,6.9-8.6,6.9-8.6L114.8,76.4z"/>
		<path class="st0" d="M79.4,221.3H66.2v-4.1c0-1.9-0.2-3-0.5-3.6c-0.3-0.5-0.9-0.7-1.6-0.7c-0.9,0-1.6,0.3-2,1.1
			c-0.4,0.6-0.7,1.7-0.7,3.1c0,1.8,0.2,3.2,0.7,4.1c0.5,0.9,1.8,2,4,3.3c6.3,3.7,10.2,6.7,11.8,9.2c1.6,2.4,2.5,6.2,2.5,11.5
			c0,3.9-0.5,6.7-1.4,8.5c-0.9,1.9-2.6,3.3-5.2,4.6c-2.6,1.2-5.6,1.8-9.1,1.8c-3.8,0-6.9-0.6-9.6-2.1c-2.7-1.4-4.4-3.2-5.2-5.4
			c-0.8-2.2-1.3-5.3-1.3-9.3v-3.6h13.2v6.6c0,2,0.2,3.3,0.6,3.9c0.3,0.6,1,0.9,2,0.9c0.9,0,1.6-0.4,2-1.1c0.5-0.7,0.7-1.8,0.7-3.2
			c0-3.2-0.4-5.3-1.3-6.3c-0.9-1-3.1-2.6-6.6-4.9c-3.5-2.4-5.8-4-6.9-5c-1.1-1.1-2.1-2.5-2.9-4.4c-0.7-1.9-1.1-4.2-1.1-7.1
			c0-4.1,0.6-7.1,1.6-9.1c1.1-1.9,2.8-3.4,5.1-4.5c2.4-1.1,5.2-1.6,8.6-1.6c3.7,0,6.8,0.6,9.3,1.8c2.6,1.2,4.3,2.7,5.1,4.5
			c0.8,1.8,1.3,4.8,1.3,9.1V221.3z M85,204.9L85,204.9h23.5v10.8h-9.4v10.3h8.8v10.2h-8.8v11.9h10.4v10.8H85V204.9z M147.1,204.9
			L147.1,204.9l-7.2,54h-21.4l-8.2-54h14.9c1.7,14.9,2.9,27.5,3.7,37.8c0.8-10.4,1.6-19.7,2.4-27.7l0.9-10.1H147.1z M173,204.9
			L173,204.9l8.1,54h-14.5l-0.7-9.7h-5.1l-0.8,9.7h-14.6l7.2-54H173z M165.5,239.7L165.5,239.7c-0.7-6.2-1.4-13.7-2.1-22.8
			c-1.4,10.5-2.3,18-2.6,22.8H165.5z"/>
	</g>
</g>
</svg>
