<?xml version="1.0" encoding="utf-8"?>
<!-- Generator: Adobe Illustrator 24.0.1, SVG Export Plug-In . SVG Version: 6.00 Build 0)  -->
<svg version="1.1" id="Layer_1" xmlns="http://www.w3.org/2000/svg" xmlns:xlink="http://www.w3.org/1999/xlink" x="0px" y="0px"
	 viewBox="0 0 160 60" style="enable-background:new 0 0 160 60;" xml:space="preserve">
<style type="text/css">
	.st0{display:none;}
	.st1{display:inline;}
	.st2{display:none;fill-rule:evenodd;clip-rule:evenodd;fill:#040406;stroke:#161617;stroke-width:0.5817;stroke-miterlimit:10;}
	.st3{fill-rule:evenodd;clip-rule:evenodd;fill:#050606;}
	.st4{fill:#E82127;}
	.st5{font-family:'HalvettBold';}
	.st6{font-size:19.6774px;}
	.st7{fill-rule:evenodd;clip-rule:evenodd;fill:#E82127;}
	.st8{fill:#FFFFFF;}
</style>
<g id="Layer_1_1_" class="st0">
	<g class="st1">
		<rect class="st2" width="160" height="60"/>
		<path class="st3" d="M111.1,36.7h-1.5c0,1-0.5,0.7,4.1,0.7c0.3,0,0.2-0.1,0.2-0.5c0-0.4-0.9-0.2-1.7-0.2l2.3-5.4h5.3
			c0.2,0.7,2.2,4.7,2.4,5.4c-1.8,0-2-0.2-2,0.5c0,0.2,0,0.2,0.2,0.2h7.2c0.3,0,0.3-0.1,0.3-0.5c0-0.4-1.3-0.2-2-0.2
			c-0.1-0.2-0.1-0.3-0.2-0.5l-3.3-7.6c-0.3-0.6-0.6-1.3-0.9-2c-0.3-0.7-0.6-1.3-0.9-2c-0.1-0.3-0.3-0.6-0.4-1
			c-0.2-0.4-0.3-0.7-0.5-1l-0.6-1.5c-0.2-0.5-0.1-0.4-1-0.4c-0.3,0-0.4,0.4-0.6,0.8c-1.9,4.6-4,9.4-5.9,14
			C111.3,36,111.1,36.4,111.1,36.7L111.1,36.7z M114.8,30.5h4.8l-2.4-5.7L114.8,30.5z"/>
		<path class="st3" d="M34.1,21.8h1.6v14.9c-1.8,0-1.6-0.2-1.6,0.6h4.6v-0.6h-1.7V23.5l3.7,5.1c0.6,0.9,5.9,8.3,6,8.6h1.2V21.8h1.6
			v-0.6h-4.6v0.6h1.7v9.5c-0.3-0.2-6.9-9.9-6.9-10.2h-5.5C34.1,21.2,34.1,21.8,34.1,21.8z"/>
		<path class="st3" d="M84.2,21.8c2.5,0,1.6-0.4,3.1,1.9c0.5,0.7,0.9,1.4,1.3,2.1l2.6,4.1c-0.6,0.9-3.1,3.9-4,5.1l-1.3,1.7
			c-0.2,0-0.5,0-0.8,0c-0.6,0-0.6-0.1-0.6,0.5c0,0.2,0,0.2,0.2,0.2h3.6c0.3,0,0.2-0.2,0.2-0.7h-1.3l3.5-4.3c0.2-0.3,1-1.3,1.3-1.4
			c0.1,0.2,0.3,0.5,0.4,0.7c0.1,0.3,0.3,0.5,0.5,0.7c0.3,0.5,0.6,0.9,0.9,1.4l1.9,2.9h-1.8v0.7h7.1c0.3,0,0.2-0.2,0.2-0.7
			c-2.1,0-1.4,0.2-2.2-1c-0.3-0.4-0.5-0.7-0.7-1.1l-4.1-6.4c0.2-0.4,2.3-2.8,2.6-3.3l2.3-2.8c0.3-0.5,0.2-0.4,1.5-0.4v-0.6h-4v0.6
			h1.3l-4.5,5.4c0-0.3-0.6-1.1-0.8-1.4l-2.6-4h1.8v-0.6h-7.5L84.2,21.8L84.2,21.8z"/>
		<path class="st3" d="M59.8,21.8h2v14.9h-2v0.6h13.4v-5.1h-0.3c-0.6,2.3-2.1,4.5-5,4.5h-2.7v-7.6c2.4,0,3.5-0.2,4.4,2.6
			c0.1,0.4,0,0.4,0.5,0.4v-6.9h-0.3c-0.2,0.7-0.5,1.5-0.9,2.1c-0.8,1.2-2.4,1-3.7,1v-6.5c1.3,0,4-0.1,5.1,0.3
			c0.9,0.4,1.2,0.7,1.7,1.3c1,1.2,0.5,1.8,1.3,1.8v-4.1H59.8V21.8z"/>
	</g>
</g>
<g id="Layer_2_1_" class="st0">
	<g class="st1">
		<text transform="matrix(0.8466 0 0 1 37.0527 37.1689)" class="st4 st5 st6">COMMERCIAL</text>
		<g>
			<path class="st7" d="M21.9,21.4c-2.5,2.3-5.5,3.9-8.6,5.3l11.1,7.9L23.8,35l-4.6-3.1c-1.5-1-5.2-0.3-5.9,1l8.5,6
				c2.4-2.2,5.2-4.1,8.6-5.4l-11.2-7.8l0.6-0.5l3.6,2.6c1.8,1.3,3.3,1.6,7.1-0.3L21.9,21.4z"/>
		</g>
	</g>
</g>
<g id="Layer_3">
	<g>
		<path class="st8" d="M103.2,15.9c0,0.3-0.2,0.3-0.4,0.4c-1.5,0.9-3,1.9-4.4,2.9c-3.1,2.2-5.6,5-7.9,8c-2.1,2.8-4.2,5.7-6.3,8.6
			c-0.7,0.9-1.4,1.9-2,2.8c-0.1,0.2-0.3,0.3-0.6,0.3c-1.6,0-3.2,0-4.8,0c-0.1,0-0.2,0-0.2,0c0-0.2-0.1-0.3-0.1-0.5
			c-0.7-3.4-1.5-6.7-2.2-10.1c-0.2-0.8-0.4-1.7-0.8-2.5c-0.3-0.6-0.6-1.1-0.9-1.7c-0.1-0.1-0.2-0.2-0.3-0.4c0.1-0.1,0.2-0.1,0.3-0.2
			c0.9-0.2,1.9-0.2,2.8,0c1.3,0.3,2.5,1.1,3.2,2.2c0.6,1,1,2,1.1,3.2c0.2,1.1,0.4,2.1,0.5,3.2c0,0.2,0.1,0.3,0.1,0.6
			c0.1-0.2,0.3-0.3,0.3-0.4c1.5-1.9,2.9-3.9,4.4-5.8c2.3-2.9,5.1-5.4,8.3-7.3c2.9-1.7,6.1-2.9,9.4-3.4c0.1,0,0.2,0,0.3,0
			C103.2,15.8,103.2,15.8,103.2,15.9z"/>
		<path class="st8" d="M25.5,23.2c0.2,0,0.3,0,0.5,0h6.5c0.8,0,1.6,0.1,2.4,0.3c0.3,0.1,0.6,0.2,0.9,0.4c1.2,0.6,1.9,1.8,1.7,3.1
			c-0.2,2.6-2.2,4.8-4.7,5.4c-0.1,0-0.3,0.1-0.5,0.1c0.7,1.1,1.3,2.1,1.9,3.2l1.9,3.2c-0.3,0-0.4,0-0.6,0c-1.6,0-3.2,0-4.7,0
			c-0.3,0-0.6-0.2-0.7-0.5c-0.8-1.7-1.5-3.4-2.3-5c-0.1-0.1-0.1-0.3-0.3-0.5L26,38.8c-0.4,0.1-4,0.1-4.6,0
			C21.4,38.4,25.1,24.4,25.5,23.2z M28.3,30.2c0.5,0,0.9,0,1.3,0c0.6,0,1.2-0.2,1.8-0.5c0.7-0.4,1.1-1,1.2-1.7
			c0.1-0.5-0.2-1.1-0.7-1.3c-0.8-0.4-1.6-0.4-2.5-0.3C29,27.6,28.7,28.9,28.3,30.2z"/>
		<path class="st8" d="M122,23.2h4.6c0,0.2-0.1,0.4-0.1,0.5c-0.7,2.7-1.4,5.4-2.2,8.1c-0.2,0.6-0.3,1.3-0.3,2c0,0.9,0.5,1.6,1.4,1.7
			c2.1,0.4,3.7-0.3,4.5-2.1c0.3-0.7,0.5-1.4,0.7-2.1c0.7-2.5,1.3-4.9,2-7.4c0.1-0.2,0.1-0.5,0.2-0.7h4.6c0,0.2-0.1,0.3-0.1,0.5
			c-0.8,2.9-1.6,5.8-2.4,8.7c-0.2,0.6-0.3,1.1-0.5,1.7c-0.7,1.9-2.2,3.5-4.1,4.2c-1.7,0.8-3.5,1-5.4,1c-0.8,0-1.7-0.1-2.5-0.3
			c-0.3-0.1-0.7-0.2-1-0.3c-1.9-0.8-2.8-2.3-2.5-4.3c0.1-0.7,0.2-1.4,0.4-2c0.7-2.8,1.5-5.6,2.3-8.5C121.8,23.6,121.9,23.5,122,23.2
			z"/>
		<path class="st8" d="M45.3,23.2c-0.1,0.3-0.1,0.5-0.2,0.8c-0.7,2.6-1.4,5.2-2.1,7.8c-0.1,0.5-0.2,1.1-0.3,1.6c0,0.3,0,0.6,0.1,0.9
			c0.1,0.6,0.6,1.1,1.1,1.2c1.5,0.4,3.6,0.2,4.6-1.8c0.3-0.7,0.6-1.4,0.8-2.1c0.7-2.6,1.4-5.2,2.1-7.8c0-0.1,0.1-0.2,0.1-0.3
			c0-0.2,0.2-0.3,0.3-0.3c0,0,0,0,0,0l4.2,0c0.1,0,0.1,0,0.2,0.1c0,0.1-0.1,0.3-0.1,0.4c-0.8,3-1.6,6-2.4,8.9
			c-0.2,0.6-0.4,1.1-0.6,1.7c-0.7,1.8-2.1,3.1-3.8,3.9c-1.1,0.5-2.3,0.8-3.5,0.9c-1.5,0.2-3.1,0.1-4.6-0.3c-0.7-0.2-1.4-0.5-1.9-0.9
			c-0.9-0.6-1.4-1.6-1.5-2.7c-0.1-1.1,0.2-2.1,0.4-3.1c0.8-2.9,1.5-5.7,2.3-8.6c0.1-0.5,0.1-0.5,0.6-0.5h3.6
			C44.9,23.2,45.1,23.2,45.3,23.2z"/>
		<path class="st8" d="M84.9,38.8c0.1-0.2,0.2-0.4,0.3-0.5c3.5-4.9,6.9-9.8,10.4-14.7c0.2-0.3,0.5-0.4,0.8-0.4c1.4,0,2.7,0,4.1,0
			h0.5c0.8,5.2,1.7,10.4,2.5,15.6c-0.4,0.1-4.3,0.1-5,0c-0.1-0.8-0.3-1.7-0.4-2.6c-0.2,0-0.3,0-0.5,0c-1.8,0-3.7,0-5.5,0
			c-0.3,0-0.5,0.1-0.7,0.3c-0.5,0.7-1,1.4-1.5,2.1c-0.1,0.2-0.3,0.3-0.5,0.3c-1.5,0-2.9,0-4.4,0C85,38.9,85,38.8,84.9,38.8z
			 M97.2,28.2l-0.1,0l-0.8,1.2l-0.8,1.2c-0.3,0.4-0.5,0.8-0.8,1.2c-0.3,0.4-0.5,0.8-0.8,1.2c0.7,0.1,3.3,0.1,3.7,0
			C97.5,31.3,97.3,29.8,97.2,28.2z"/>
		<path class="st8" d="M149.8,23.2c-0.1,0.2-0.1,0.4-0.1,0.5c-0.2,0.8-0.4,1.6-0.6,2.4c-0.1,0.5-0.1,0.5-0.7,0.5c-1.4,0-2.9,0-4.3,0
			h-0.7c-0.2,0.9-0.5,1.7-0.7,2.6h5.2c-0.3,1.2-0.6,2.3-0.9,3.5c-1.7,0-3.5,0-5.2,0l-0.7,2.6c0.2,0,0.4,0,0.6,0c1.4,0,2.8,0,4.2,0
			h0.7c-0.2,1.2-0.6,2.3-0.9,3.4c-0.4,0.1-9.5,0.1-10.1,0c0-0.4,3.9-15,4.1-15.6C139.6,23.2,149.8,23.2,149.8,23.2z"/>
		<path class="st8" d="M59.7,35.4c1.9,0,3.7,0,5.5,0c-0.3,1.2-0.6,2.3-0.9,3.4c-0.4,0.1-9.6,0.1-10.1,0c0,0,0,0,0,0c0,0,0,0,0,0
			c0-0.1,0-0.2,0-0.3c1.4-5.1,2.7-10.1,4.1-15.2c0.4-0.1,9.3-0.1,10.1,0c0,0.1,0,0.2,0,0.4c-0.2,0.9-0.5,1.8-0.7,2.6
			c-0.1,0.4-0.1,0.4-0.5,0.4c-1.5,0-3,0-4.4,0H62c-0.2,0.9-0.5,1.7-0.7,2.5c0.5,0.1,0.9,0.1,1.3,0.1s0.8,0,1.2,0h2.6
			c0,0.1,0,0.3,0,0.4c-0.2,0.9-0.5,1.8-0.7,2.7c-0.1,0.4-0.1,0.4-0.6,0.4c-1.4,0-2.8,0-4.2,0c-0.6,0-0.6,0-0.7,0.5
			C60.1,34,59.9,34.6,59.7,35.4z"/>
		<path class="st8" d="M10.8,38.9c1.1-4.1,2.2-8.1,3.3-12.2c-0.2,0-0.4,0-0.6,0c-0.9,0-1.8,0-2.6,0c-0.2,0-0.4,0-0.6,0l0.9-3.4h12.3
			c0,0.2-0.1,0.3-0.1,0.5c-0.2,0.8-0.4,1.7-0.7,2.5c-0.1,0.5-0.1,0.5-0.6,0.5c-0.9,0-1.8,0-2.7,0c-0.2,0-0.4,0-0.6,0
			c-0.1,0.2-0.1,0.4-0.2,0.5c-1,3.7-2,7.4-3,11.1c0,0.1,0,0.2-0.1,0.2c0,0.3-0.2,0.4-0.5,0.4c-1,0-1.9,0-2.9,0L10.8,38.9z"/>
		<path class="st8" d="M109.7,23.2h4.6c-0.1,0.2-0.1,0.4-0.1,0.6c-1,3.7-2,7.3-2.9,11c0,0.2-0.1,0.3-0.1,0.6c1.9,0,3.7,0,5.5,0
			c-0.3,1.2-0.6,2.3-0.9,3.4h-10.2C106.9,33.6,108.3,28.4,109.7,23.2z"/>
	</g>
</g>
</svg>
