<?xml version="1.0" encoding="utf-8"?>
<!-- Generator: Adobe Illustrator 24.0.1, SVG Export Plug-In . SVG Version: 6.00 Build 0)  -->
<svg version="1.1" id="Layer_1" xmlns="http://www.w3.org/2000/svg" xmlns:xlink="http://www.w3.org/1999/xlink" x="0px" y="0px"
	 viewBox="0 0 200 100" style="enable-background:new 0 0 200 100;" xml:space="preserve">
<style type="text/css">
	.st0{fill:#FFFFFF;}
</style>
<g>
	<polygon class="st0" points="87.7,61.5 87.7,51.2 111.7,51.2 111.7,47.6 87.7,47.6 87.7,38.5 114.7,38.5 114.7,34.8 83.7,34.8 
		83.7,65.2 115.1,65.2 115.1,61.5 	"/>
	<path class="st0" d="M184.4,52.5h-15.8l8.1-12.4L184.4,52.5z M178.2,34.8H175l-19.4,30.3h4.8l5.8-9.1h20.5l5.6,9.1h4.7L178.2,34.8z
		"/>
	<path class="st0" d="M31.8,52.5H16l8.1-12.4L31.8,52.5z M25.7,34.8h-3.2L3,65.2h4.9l5.7-9.1h20.5l5.6,9.1h4.8L25.7,34.8z"/>
	<path class="st0" d="M149.9,34.8v24.6c-3-2.6-7.4-6.5-13.4-11.7c-6.1-5.3-10.9-9.6-14.2-12.7l-0.2-0.2h-3.8v30.3h4.1V40.5
		l27.7,24.7h3.9V34.8H149.9z"/>
	<path class="st0" d="M72.3,47.8c-2,0.7-4.2,1.1-7,1.1H50.2V38.5h15.1c6.9,0,10.3,1.8,10.3,5.4C75.6,45.6,74.6,46.9,72.3,47.8
		L72.3,47.8z M72,51.7c0.8-0.2,1.4-0.4,2-0.6c3.9-1.5,5.9-3.9,5.9-7.3c0-5.9-5-9-15-9H46.1v30.3h4.1V52.6h14.1c1.1,0,2.2,0,3.3-0.2
		l8,12.8h4.8L72,51.7z"/>
</g>
</svg>
