<?xml version="1.0" encoding="utf-8"?>
<!-- Generator: Adobe Illustrator 24.0.1, SVG Export Plug-In . SVG Version: 6.00 Build 0)  -->
<svg version="1.1" id="Layer_1" xmlns="http://www.w3.org/2000/svg" xmlns:xlink="http://www.w3.org/1999/xlink" x="0px" y="0px"
	 viewBox="0 0 200 100" style="enable-background:new 0 0 200 100;" xml:space="preserve">
<style type="text/css">
	.st0{display:none;}
	.st1{display:inline;fill:#FFFFFF;}
	.st2{display:inline;fill-rule:evenodd;clip-rule:evenodd;fill:#FFFFFF;}
	.st3{enable-background:new    ;}
	.st4{fill:#FFFFFF;}
</style>
<g class="st0">
	<polygon class="st1" points="87.7,61.5 87.7,51.2 111.7,51.2 111.7,47.6 87.7,47.6 87.7,38.5 114.7,38.5 114.7,34.8 83.7,34.8 
		83.7,65.2 115.1,65.2 115.1,61.5 	"/>
	<path class="st1" d="M184.4,52.5h-15.8l8.1-12.4L184.4,52.5z M178.2,34.8H175l-19.4,30.3h4.8l5.8-9.1h20.5l5.6,9.1h4.7L178.2,34.8z
		"/>
	<path class="st1" d="M31.8,52.5H16l8.1-12.4L31.8,52.5z M25.7,34.8h-3.2L3,65.2h4.9l5.7-9.1h20.5l5.6,9.1h4.8L25.7,34.8z"/>
	<path class="st1" d="M149.9,34.8v24.6c-3-2.6-7.4-6.5-13.4-11.7c-6.1-5.3-10.9-9.6-14.2-12.7l-0.2-0.2h-3.8v30.3h4.1V40.5
		l27.7,24.7h3.9V34.8H149.9z"/>
	<path class="st1" d="M72.3,47.8c-2,0.7-4.2,1.1-7,1.1H50.2V38.5h15.1c6.9,0,10.3,1.8,10.3,5.4C75.6,45.6,74.6,46.9,72.3,47.8
		L72.3,47.8z M72,51.7c0.8-0.2,1.4-0.4,2-0.6c3.9-1.5,5.9-3.9,5.9-7.3c0-5.9-5-9-15-9H46.1v30.3h4.1V52.6h14.1c1.1,0,2.2,0,3.3-0.2
		l8,12.8h4.8L72,51.7z"/>
</g>
<g class="st0">
	<path class="st2" d="M158.4,64.8h-3c0,1.9-1,1.3,8,1.3c0.5,0,0.4-0.3,0.4-0.9c0-0.7-1.7-0.4-3.2-0.4l4.5-10.5h10.3
		c0.4,1.3,4.3,9.2,4.6,10.5c-3.4,0-4-0.4-4,0.9c0,0.4,0.1,0.4,0.4,0.4h13.9c0.6,0,0.5-0.3,0.5-0.9c0-0.8-2.4-0.4-3.9-0.4
		c-0.2-0.4-0.3-0.6-0.4-1L180,49.1c-0.5-1.2-1.2-2.5-1.7-3.9c-0.6-1.3-1.2-2.5-1.8-3.9c-0.3-0.6-0.5-1.2-0.8-1.9
		c-0.4-0.7-0.5-1.3-0.9-2l-1.3-2.8c-0.4-1-0.2-0.8-2-0.8c-0.5,0-0.7,0.8-1.1,1.6c-3.6,9-7.8,18.3-11.4,27.2
		C159,63.4,158.5,64.2,158.4,64.8L158.4,64.8z M165.6,52.7h9.4l-4.6-11L165.6,52.7z"/>
	<path class="st2" d="M9,35.8h3.1v29C8.6,64.8,9,64.4,9,66h8.9v-1.2h-3.2V39l7.1,9.9c1.3,1.8,11.5,16.1,11.6,16.6h2.3V35.8h3.1v-1.2
		h-8.9v1.2h3.2v18.5C32.6,53.9,19.7,35,19.6,34.5H9V35.8z"/>
	<path class="st2" d="M106.2,35.8c4.8,0,3.1-0.7,6,3.7c0.9,1.3,1.7,2.7,2.6,4l5,8c-1.2,1.8-6.1,7.6-7.8,9.9l-2.6,3.4
		c-0.4,0-1,0-1.5,0c-1.2-0.1-1.2-0.2-1.2,0.9c0,0.4,0.1,0.4,0.4,0.4h7c0.6,0,0.4-0.4,0.4-1.3h-2.4l6.7-8.4c0.4-0.5,1.9-2.6,2.4-2.8
		c0.2,0.4,0.5,1,0.8,1.3c0.3,0.5,0.6,1,0.9,1.4c0.6,0.9,1.2,1.8,1.8,2.8l3.6,5.6H125V66h13.8c0.6,0,0.4-0.4,0.4-1.3
		c-4,0-2.8,0.4-4.3-1.9c-0.5-0.7-0.9-1.4-1.3-2.1l-8-12.4c0.5-0.7,4.4-5.4,5.1-6.3l4.4-5.5c0.6-1,0.4-0.7,3-0.7v-1.2h-7.8v1.2h2.6
		L124,46.3c-0.1-0.6-1.2-2-1.6-2.7l-5.1-7.8h3.4v-1.2h-14.5C106.2,34.6,106.2,35.8,106.2,35.8z"/>
	<path class="st2" d="M58.9,35.8h4v29h-4V66H85V56h-0.6c-1.1,4.4-4.1,8.8-9.7,8.8h-5.3V49.9c4.7,0,6.8-0.4,8.6,5.1
		c0.2,0.7,0,0.8,0.9,0.8V42.5h-0.6c-0.4,1.4-1,2.8-1.8,4c-1.6,2.3-4.6,1.9-7.1,1.9V35.8c2.5,0,7.8-0.3,9.9,0.5
		c1.7,0.7,2.3,1.4,3.3,2.6c1.9,2.3,1,3.6,2.4,3.6v-7.9H58.9V35.8z"/>
</g>
<g class="st3">
	<path class="st4" d="M30.3,51.9c-0.1,2.5-1,4.5-2.5,5.9c-1.4,1.3-3.3,2-5.4,2c-2.8,0-4.9-1.1-6.4-3.2c-1.4-2-2-4.6-2-8
		c0-3.5,0.7-6.2,2.1-8.2c1.5-2,3.7-3.1,6.6-3.1c2.2,0,4,0.6,5.3,1.8c1.4,1.3,2.2,3.3,2.3,5.8h-3.7c-0.3-2.5-1.6-3.7-4-3.7
		c-3.3,0-5,2.5-5,7.4c0,2.1,0.4,3.8,1.1,5.1c0.8,1.5,2.1,2.2,3.8,2.2c2.4,0,3.7-1.3,4.2-3.9H30.3z"/>
	<path class="st4" d="M50.1,48.6c0,3.3-0.8,6-2.3,8.1c-1.6,2.1-3.8,3.2-6.6,3.2s-5-1.1-6.5-3.2c-1.5-2-2.2-4.7-2.2-8s0.7-6,2.2-8.1
		c1.6-2.1,3.8-3.2,6.5-3.2s5,1.1,6.6,3.2C49.4,42.6,50.1,45.3,50.1,48.6z M46.3,48.6c0-2.1-0.4-3.9-1.1-5.2
		c-0.9-1.5-2.2-2.3-3.9-2.3c-1.7,0-3,0.8-3.9,2.3c-0.7,1.3-1.1,3-1.1,5.2c0,2.1,0.4,3.9,1.1,5.2c0.9,1.5,2.2,2.3,3.9,2.3
		c1.7,0,3-0.7,3.9-2.2C46,52.5,46.3,50.8,46.3,48.6z"/>
	<path class="st4" d="M71.2,59.3h-3.5V42L64,59.3h-3.8L56.5,42v17.3h-3.5V37.9h5.5l3.6,16.2l3.5-16.2h5.5V59.3z"/>
	<path class="st4" d="M93,59.3h-3.5V42l-3.7,17.3h-3.8L78.4,42v17.3h-3.5V37.9h5.5L84,54.1l3.5-16.2H93V59.3z"/>
	<path class="st4" d="M110.3,59.3H96.8V37.9h13.1v3.7h-9.4v4.6h8.6v3.7h-8.6v5.5h9.9V59.3z"/>
	<path class="st4" d="M128,59.3h-4.1c-0.3-0.7-0.5-1.7-0.5-3c0-1.9-0.1-3.2-0.2-3.6c-0.3-1.1-1.2-1.6-2.5-1.6h-3.9v8.3h-3.7V37.9
		h8.7c3.9,0,5.8,2,5.8,6c0,2.7-0.9,4.4-2.7,5.1c0.9,0.4,1.6,1.1,1.9,2.2c0.2,0.7,0.3,1.8,0.3,3.2c0,0.2,0,0.4,0,0.7
		c0,0.3,0,0.5,0,0.7c0,1.6,0.3,2.6,0.8,2.9V59.3z M124,44.4c0-1.9-0.9-2.8-2.6-2.8h-4.5v5.7h4.3C123,47.2,124,46.3,124,44.4z"/>
	<path class="st4" d="M146.7,51.9c-0.1,2.5-1,4.5-2.5,5.9c-1.4,1.3-3.3,2-5.4,2c-2.8,0-4.9-1.1-6.4-3.2c-1.4-2-2-4.6-2-8
		c0-3.5,0.7-6.2,2.1-8.2c1.5-2,3.7-3.1,6.6-3.1c2.2,0,4,0.6,5.3,1.8c1.4,1.3,2.2,3.3,2.3,5.8H143c-0.3-2.5-1.6-3.7-4-3.7
		c-3.3,0-5,2.5-5,7.4c0,2.1,0.4,3.8,1.1,5.1c0.8,1.5,2.1,2.2,3.8,2.2c2.4,0,3.7-1.3,4.2-3.9H146.7z"/>
	<path class="st4" d="M153.5,59.3h-3.7V37.9h3.7V59.3z"/>
	<path class="st4" d="M172.7,59.3h-3.9l-1.2-4.4h-7l-1.2,4.4h-3.9l6.4-21.4h4.3L172.7,59.3z M166.6,51.3l-2.5-9.1l-2.5,9.1H166.6z"
		/>
	<path class="st4" d="M187.1,59.3h-12.5V37.9h3.7v17.4h8.8V59.3z"/>
</g>
</svg>
