<?xml version="1.0" encoding="utf-8"?>
<!-- Generator: Adobe Illustrator 24.0.1, SVG Export Plug-In . SVG Version: 6.00 Build 0)  -->
<svg version="1.1" id="Layer_1" xmlns="http://www.w3.org/2000/svg" xmlns:xlink="http://www.w3.org/1999/xlink" x="0px" y="0px"
	 viewBox="0 0 262 70" style="enable-background:new 0 0 262 70;" xml:space="preserve">
<style type="text/css">
	.st0{fill-rule:evenodd;clip-rule:evenodd;fill:#FFFFFF;}
	.st1{fill:#FFFFFF;}
</style>
<g>
	<g>
		<path class="st0" d="M20.4,21c-4.1,3.6-8.8,6.4-13.8,8.5l17.8,12.8l-1,0.5l-7.4-4.9c-2.4-1.6-8.4-0.5-9.6,1.5L20.2,49
			c3.8-3.7,8.4-6.5,13.8-8.7L16,27.7l1-0.7l5.8,4.2c2.9,2.1,5.2,2.6,11.5-0.5L20.4,21z"/>
	</g>
	<g>
		<g>
			<polygon class="st1" points="43.3,28 51.1,28 53.4,36.1 53.5,36.1 55.8,28 63.5,28 63.5,42 58.5,42 58.5,32 58.5,32 55.5,42 
				51.3,42 48.4,32 48.4,32 48.4,42 43.3,42 			"/>
			<path class="st1" d="M73.6,32.2L73.6,32.2L73.6,32.2L71.9,37h3.3L73.6,32.2z M70.2,28H77l6,14h-5.9l-0.6-1.6h-5.8L70.1,42h-5.9
				L70.2,28z"/>
			<path class="st1" d="M102.1,28h5.5v8.5c0,1.8,1,2.4,2.8,2.4c1.8,0,2.8-0.6,2.8-2.4V28h5.5v8.7c0,4.5-2.7,5.8-8.4,5.8
				c-5.7,0-8.4-1.4-8.4-5.8V28z"/>
			<polygon class="st1" points="125.1,31.5 119.9,31.5 119.9,28 135.7,28 135.7,31.5 130.6,31.5 130.6,42 125.1,42 			"/>
			<rect x="136.9" y="28" class="st1" width="5.5" height="14"/>
			<path class="st1" d="M89.1,31.5L89.1,31.5h3.8c0.9,0,1.6,0.3,1.6,1.3c0,0.9-0.5,1.3-1.5,1.3h-3.9V31.5z M101.7,42L97,37.6
				c3.9-0.6,3.4-4.4,3.4-5.7c0-1.5-0.9-2.9-1.9-3.4c-0.8-0.4-1.7-0.5-3.3-0.5H83.5v14h5.5v-4.3h1l4.6,4.3H101.7z"/>
		</g>
		<g>
			<path class="st1" d="M160.4,36.1c-2.7-0.4-3.8-2-3.8-3.9c0-3.6,3.6-4.6,8.1-4.6c6.2,0,8.8,1.6,9,4.6h-6.4c0-0.6-0.3-0.9-0.8-1.1
				c-0.5-0.2-1.1-0.3-1.7-0.3c-1.6,0-2.2,0.4-2.2,1c0,0.4,0.2,0.6,0.7,0.7l6.6,1c2.8,0.4,4.5,1.7,4.5,4.1c0,3.4-2.8,5-9,5
				c-4.3,0-8.9-0.6-8.9-4.7h6.7c0,0.5,0.2,0.8,0.6,1c0.4,0.2,1,0.3,1.9,0.3c1.7,0,2.2-0.5,2.2-1.1c0-0.4-0.3-0.8-1-0.9L160.4,36.1z"
				/>
			<path class="st1" d="M175.9,28h5.5v8.5c0,1.8,1,2.4,2.8,2.4c1.8,0,2.8-0.6,2.8-2.4V28h5.5v8.7c0,4.5-2.7,5.8-8.4,5.8
				c-5.7,0-8.4-1.4-8.4-5.8V28z"/>
			<polygon class="st1" points="194.1,39 202.5,31.5 194.7,31.5 194.7,28 210,28 210,31.1 201.8,38.5 209.8,38.5 209.8,42 194.1,42 
							"/>
			<path class="st1" d="M211.5,28h5.5v8.5c0,1.8,1,2.4,2.8,2.4c1.8,0,2.8-0.6,2.8-2.4V28h5.5v8.7c0,4.5-2.7,5.8-8.4,5.8
				c-5.7,0-8.4-1.4-8.4-5.8V28z"/>
			<rect x="250" y="28" class="st1" width="5.5" height="14"/>
			<polygon class="st0" points="230.7,42 236,42 235.9,37 241.3,42 248.4,42 240.7,34.9 248.8,28 242.1,28 236,32.8 236,28 
				230.7,28 			"/>
		</g>
	</g>
</g>
</svg>
