<?xml version="1.0" encoding="utf-8"?>
<!-- Generator: Adobe Illustrator 24.0.1, SVG Export Plug-In . SVG Version: 6.00 Build 0)  -->
<svg version="1.1" id="Layer_1" xmlns="http://www.w3.org/2000/svg" xmlns:xlink="http://www.w3.org/1999/xlink" x="0px" y="0px"
	 viewBox="0 0 200 100" style="enable-background:new 0 0 200 100;" xml:space="preserve">
<style type="text/css">
	.st0{display:none;}
	.st1{display:inline;fill:#FFFFFF;}
	.st2{fill-rule:evenodd;clip-rule:evenodd;fill:#FFFFFF;}
</style>
<g class="st0">
	<polygon class="st1" points="87.7,61.5 87.7,51.2 111.7,51.2 111.7,47.6 87.7,47.6 87.7,38.5 114.7,38.5 114.7,34.8 83.7,34.8 
		83.7,65.2 115.1,65.2 115.1,61.5 	"/>
	<path class="st1" d="M184.4,52.5h-15.8l8.1-12.4L184.4,52.5z M178.2,34.8H175l-19.4,30.3h4.8l5.8-9.1h20.5l5.6,9.1h4.7L178.2,34.8z
		"/>
	<path class="st1" d="M31.8,52.5H16l8.1-12.4L31.8,52.5z M25.7,34.8h-3.2L3,65.2h4.9l5.7-9.1h20.5l5.6,9.1h4.8L25.7,34.8z"/>
	<path class="st1" d="M149.9,34.8v24.6c-3-2.6-7.4-6.5-13.4-11.7c-6.1-5.3-10.9-9.6-14.2-12.7l-0.2-0.2h-3.8v30.3h4.1V40.5
		l27.7,24.7h3.9V34.8H149.9z"/>
	<path class="st1" d="M72.3,47.8c-2,0.7-4.2,1.1-7,1.1H50.2V38.5h15.1c6.9,0,10.3,1.8,10.3,5.4C75.6,45.6,74.6,46.9,72.3,47.8
		L72.3,47.8z M72,51.7c0.8-0.2,1.4-0.4,2-0.6c3.9-1.5,5.9-3.9,5.9-7.3c0-5.9-5-9-15-9H46.1v30.3h4.1V52.6h14.1c1.1,0,2.2,0,3.3-0.2
		l8,12.8h4.8L72,51.7z"/>
</g>
<g>
	<path class="st2" d="M158.4,64.8h-3c0,1.9-1,1.3,8,1.3c0.5,0,0.4-0.3,0.4-0.9c0-0.7-1.7-0.4-3.2-0.4l4.5-10.5h10.3
		c0.4,1.3,4.3,9.2,4.6,10.5c-3.4,0-4-0.4-4,0.9c0,0.4,0.1,0.4,0.4,0.4h13.9c0.6,0,0.5-0.3,0.5-0.9c0-0.8-2.4-0.4-3.9-0.4
		c-0.2-0.4-0.3-0.6-0.4-1l-6.5-14.7c-0.5-1.2-1.2-2.5-1.7-3.9c-0.6-1.3-1.2-2.5-1.8-3.9c-0.3-0.6-0.5-1.2-0.8-1.9
		c-0.4-0.7-0.5-1.3-0.9-2l-1.3-2.8c-0.4-1-0.2-0.8-2-0.8c-0.5,0-0.7,0.8-1.1,1.6c-3.6,9-7.8,18.3-11.4,27.2
		C159,63.4,158.5,64.2,158.4,64.8L158.4,64.8z M165.6,52.7h9.4l-4.6-11L165.6,52.7z"/>
	<path class="st2" d="M9,35.8h3.1v29c-3.5,0-3.1-0.4-3.1,1.2h8.9v-1.2h-3.2V39l7.1,9.9c1.3,1.8,11.5,16.1,11.6,16.6h2.3V35.8h3.1
		v-1.2h-8.9v1.2h3.2v18.5C32.6,53.9,19.7,35,19.6,34.5H9V35.8z"/>
	<path class="st2" d="M106.2,35.8c4.8,0,3.1-0.7,6,3.7c0.9,1.3,1.7,2.7,2.6,4l5,8c-1.2,1.8-6.1,7.6-7.8,9.9l-2.6,3.4
		c-0.4,0-1,0-1.5,0c-1.2-0.1-1.2-0.2-1.2,0.9c0,0.4,0.1,0.4,0.4,0.4h7c0.6,0,0.4-0.4,0.4-1.3h-2.4l6.7-8.4c0.4-0.5,1.9-2.6,2.4-2.8
		c0.2,0.4,0.5,1,0.8,1.3c0.3,0.5,0.6,1,0.9,1.4c0.6,0.9,1.2,1.8,1.8,2.8l3.6,5.6H125v1.3h13.8c0.6,0,0.4-0.4,0.4-1.3
		c-4,0-2.8,0.4-4.3-1.9c-0.5-0.7-0.9-1.4-1.3-2.1l-8-12.4c0.5-0.7,4.4-5.4,5.1-6.3l4.4-5.5c0.6-1,0.4-0.7,3-0.7v-1.2h-7.8v1.2h2.6
		L124,46.3c-0.1-0.6-1.2-2-1.6-2.7l-5.1-7.8h3.4v-1.2h-14.5V35.8z"/>
	<path class="st2" d="M58.9,35.8h4v29h-4v1.2H85V56h-0.6c-1.1,4.4-4.1,8.8-9.7,8.8h-5.3V49.9c4.7,0,6.8-0.4,8.6,5.1
		c0.2,0.7,0,0.8,0.9,0.8V42.5h-0.6c-0.4,1.4-1,2.8-1.8,4c-1.6,2.3-4.6,1.9-7.1,1.9V35.8c2.5,0,7.8-0.3,9.9,0.5
		c1.7,0.7,2.3,1.4,3.3,2.6c1.9,2.3,1,3.6,2.4,3.6v-7.9H58.9V35.8z"/>
</g>
</svg>
