<?xml version="1.0" encoding="utf-8"?>
<!-- Generator: Adobe Illustrator 24.0.1, SVG Export Plug-In . SVG Version: 6.00 Build 0)  -->
<svg version="1.1" id="Layer_1" xmlns="http://www.w3.org/2000/svg" xmlns:xlink="http://www.w3.org/1999/xlink" x="0px" y="0px"
	 viewBox="0 0 294.1 300.3" style="enable-background:new 0 0 294.1 300.3;" xml:space="preserve">
<style type="text/css">
	.st0{clip-path:url(#SVGID_2_);}
	.st1{fill:#262262;}
	.st2{fill-rule:evenodd;clip-rule:evenodd;fill:#262262;}
	.st3{fill-rule:evenodd;clip-rule:evenodd;fill:#FFFFFF;}
	.st4{fill:#FFFFFF;}
	.st5{fill:none;stroke:#262262;stroke-width:5;stroke-miterlimit:10;}
</style>
<g>
	<defs>
		<circle id="SVGID_1_" cx="-583.5" cy="96.7" r="266.3"/>
	</defs>
	<clipPath id="SVGID_2_">
		<use xlink:href="#SVGID_1_"  style="overflow:visible;"/>
	</clipPath>
	<g class="st0">
		<g>
			<defs>
				<rect id="SVGID_3_" x="-856.4" y="-174.1" width="546.2" height="546.2"/>
			</defs>
			<clipPath id="SVGID_4_">
				<use xlink:href="#SVGID_3_"  style="overflow:visible;"/>
			</clipPath>
			<g style="clip-path:url(#SVGID_4_);">
				
					<image style="overflow:visible;" width="1024" height="1024" xlink:href="CA8A583B.jpg"  transform="matrix(0.5334 0 0 0.5334 -856.427 -174.1361)">
				</image>
			</g>
		</g>
	</g>
</g>
<g>
	<g>
		<path class="st1" d="M-783,148.3c1.1,3.3,2.3,7.5,3.3,11.5c1.5,5.7,2.6,10.8,2,14.8c-0.6,3.7-2.2,5.4-4.7,6.3
			c-3.1,1.2-6.9-0.5-10.1-5.8c0,0-0.1,0-0.1,0c0.4,4.1-0.8,6.7-3.6,8.8c-2.8,2.3-5.9,5.1-6.6,6.6c-1.7-4.7-2.5-7.1-4-12
			c0.6-1,3.2-3.2,6.2-5.1c3.4-2.1,3.9-4.3,2.9-8.1c-0.2-0.7-0.3-1-0.4-1.7c-4.8,1.3-7.2,1.9-12,3.2c-1.2-4.8-1.8-7.3-2.8-12.3
			C-803,152.4-793,150.3-783,148.3z M-793.7,162.4c0.2,0.8,0.3,1.2,0.5,2c1.3,4.8,4.2,6.9,6.7,6.1c2.5-0.8,3.8-3.2,2.5-8
			c-0.2-0.9-0.6-1.9-0.8-2.5C-788.3,161-790.1,161.5-793.7,162.4z"/>
		<path class="st1" d="M-772.2,185c1.3,2.3,2.9,5.6,4.5,9.3c2.7,6,3.9,10.3,3.9,14.1c0,5-2.3,9.2-7.5,12.3c-5.4,3.3-10.7,3-15.2-0.2
			c-3.5-2.4-7.2-7.1-10.5-14.8c-1.5-3.3-2.7-6.8-3.4-9.1C-791,192.7-781.6,188.8-772.2,185z M-791.6,205.4c0.1,0.5,0.5,1.3,0.7,1.9
			c2.3,5,7,7.8,14.5,3.7c5.6-3,7.7-7.3,5.1-12.9c-0.3-0.6-0.6-1.3-1-1.8C-780,199.9-783.9,201.7-791.6,205.4z"/>
		<path class="st1" d="M-776.8,230.5c0.6,2.3,2.2,5.8,4,8.4c2.9,4.2,5.5,5.3,7.1,4.1c1.8-1.4,1.3-4,0.1-8.7
			c-1.9-7.5-0.5-11.7,1.9-13.2c4.2-2.7,10.4-0.2,16.3,8c1.9,2.6,3.3,5.3,3.7,6.8c-2,0.8-3,1.3-5,2.1c-0.4-1.5-1.3-3.5-3-5.7
			c-2.4-3.4-4.8-4.1-6.2-3.2c-1.5,1.1-1.5,2.9,0.2,8.7c2,7,1.3,11-1.2,13.1c-4.4,3.6-12.1,0.3-18.3-9c-2.5-3.8-4.4-8-4.8-9.9
			C-779.9,231.4-778.9,231.1-776.8,230.5z"/>
		<path class="st1" d="M-736.6,268.3c-3.4-3.2-5-4.9-8.3-8.3c-2.4,2.3-3.7,3.5-6.1,5.8c3.8,4,5.7,6,9.7,9.7
			c-1.4,1.5-2.2,2.3-3.6,3.9c-7.2-6.7-10.6-10.3-17.1-17.9c7.9-6.8,15.7-13.6,23.6-20.4c5.4,6.3,8.3,9.3,14.2,15
			c-1.5,1.5-2.2,2.3-3.6,3.8c-3.4-3.2-5-4.8-8.2-8.3c-2.1,2-3.1,3-5.2,4.9c3.2,3.4,4.8,5,8.1,8.1
			C-734.5,266.1-735.2,266.8-736.6,268.3z"/>
		<path class="st1" d="M-710.3,288c-1,1.4-1.5,2.1-2.5,3.6c-5-3.4-7.4-5.2-12.1-9c1.1-1.4,1.6-2,2.7-3.4
			C-717.5,282.9-715.2,284.6-710.3,288z"/>
		<path class="st1" d="M-697.9,312.9c2.3-4.2,3.5-6.3,5.8-10.4c-0.2-8.8,0-13.2,0.6-21.8c3.3,2,4.9,2.9,8.3,4.7
			c-0.3,3.2-0.5,4.8-0.8,8c-0.2,2.1-0.4,4.6-0.9,7c0.1,0,0.1,0,0.1,0.1c1.6-1.7,3.3-3.4,5.1-5c2.3-2.1,3.5-3.2,5.8-5.3
			c3.3,1.6,5,2.3,8.4,3.8c-6.8,5.4-10.4,7.9-17.9,12.8c-2.2,4.4-3.3,6.5-5.4,10.9C-692.5,315.8-694.3,314.9-697.9,312.9z"/>
		<path class="st1" d="M-648.8,320.7c-2.7,9-11.9,8.7-17.3,6.7c-8.6-3.1-11.9-9.2-8.9-15.9c3.3-7.4,10.8-8.1,17.2-5.8
			C-650.2,308.4-646.7,313.9-648.8,320.7z M-666,315c-1.4,3.6-1.7,7,1.7,8.2c3,1.1,5.1-2.2,6.2-5.4c1-2.9,1.6-6.8-1.4-7.9
			C-662.8,308.8-664.9,312.1-666,315z"/>
		<path class="st1" d="M-615.5,316.5c-0.4,2-1,4.3-1.4,7c-0.8,5.1-1.2,7.6-2,12.7c-0.7,4.8-2.6,7.2-6.1,8.4c-3.1,1.1-7.4,1.3-13.1,0
			c-3.6-0.8-6.8-1.9-9.4-3.3c1.2-1.6,1.9-2.4,3.1-4c1.8,1,4.1,2,7,2.6c5.1,1.1,7.6-0.5,8.2-3.9c0.1-0.5,0.2-0.8,0.3-1.4
			c-0.1,0-0.1,0-0.2,0c-1.6,1.2-4.3,1.5-7.2,0.8c-8.4-1.8-10.1-8.1-8.6-13.3c2.1-7.2,8.3-10,14.5-8.7c2.7,0.6,4.7,1.9,5.7,3.8
			c0.1,0,0.1,0,0.1,0c0.4-0.9,0.6-1.3,0.9-2.1C-620.3,315.8-618.7,316-615.5,316.5z M-626.5,323c0.1-0.6,0.1-1.2,0-1.7
			c-0.2-1-1.1-2.1-2.6-2.4c-3.3-0.7-5.3,1.9-6.2,5.5c-1,4.1,0.5,6.6,3.2,7.1c1.3,0.3,2.7,0.1,3.6-0.9c0.4-0.4,0.7-1.1,0.8-1.7
			C-627.2,326.5-627,325.3-626.5,323z"/>
		<path class="st1" d="M-603,331.3c-0.2,3.5,3.1,5.1,7.5,5.3c2.8,0.1,5.4-0.2,7.1-0.5c0.5,1.7,0.8,2.6,1.3,4.3
			c-2.7,0.6-6.7,0.9-10.6,0.6c-10.4-0.6-15.5-5.4-14.6-12.4c1-7.5,7.5-11.2,15.3-10.7c7.4,0.4,11.7,4.2,11.6,11
			c0,1.6-0.1,2.5-0.3,3.1C-592.6,332.1-596.1,331.9-603,331.3z M-594.1,327.7c0.1-2.9-0.9-5.2-3.7-5.4c-3.1-0.2-4.5,2.6-4.8,4.8
			C-599.2,327.4-597.5,327.5-594.1,327.7z"/>
		<path class="st1" d="M-580,335.8c1.5,0.5,4.2,1.1,6.8,1c2.6-0.1,4-0.9,3.9-2.2c-0.1-1.1-1.2-1.8-4.5-2.8c-6-1.8-7.5-4.2-7.5-6.3
			c0-4,4.4-7.1,11.3-7.5c2.9-0.2,5.2,0.1,7.1,0.5c-0.5,1.8-0.7,2.7-1.2,4.5c-1.4-0.4-3.1-0.7-5-0.6c-2.4,0.1-3.5,1.1-3.4,2.1
			c0.1,1,0.9,1.6,4.3,2.6c5.4,1.6,7.7,3.6,7.9,6.2c0.5,4.6-4.9,7.6-12.8,8c-3.2,0.1-7-0.3-8.8-1.1
			C-581.1,338.5-580.7,337.6-580,335.8z"/>
		<path class="st1" d="M-558.4,307.9c3.5-0.4,5.3-0.7,8.8-1.2c0.8,4.6,1.2,6.9,2,11.5c0.1,0,0.1,0,0.1,0c0.6-0.9,1.6-1.8,2.6-2.4
			c1.2-0.7,2.8-1.3,4.4-1.6c6.2-1.2,9.5,1.5,10.9,7.1c1.3,5.3,2,8,3.3,13.3c-4,0.9-6,1.4-10,2.2c-1.1-5.4-1.7-8-2.8-13.4
			c-0.4-2.2-1.5-3.9-4.2-3.4c-1.6,0.3-2.9,1.1-3.3,2.7c-0.1,0.4-0.2,1.2-0.1,1.7c0.9,5.5,1.4,8.3,2.3,13.8c-4,0.6-6.1,0.9-10.1,1.4
			C-555.7,329-557.1,318.5-558.4,307.9z"/>
		<path class="st1" d="M-479.7,317.4c-1.8,1.5-6,4-9.5,5.5c-5.6,2.3-10.3,2.9-14.2,2.1c-5.1-1-8.8-4.7-10.4-9.8
			c-3.1-10.1,4.4-18.3,13.1-21.9c3.2-1.3,5.7-2,7.2-2.2c0.3,2.1,0.5,3.2,0.8,5.4c-1.4,0.1-3.1,0.6-5.2,1.6
			c-5.7,2.4-9.3,6.7-6.4,14.3c2.7,7,8.2,7.8,12.5,6c0.8-0.4,1.5-0.7,1.8-0.9c-1.2-2.8-1.8-4.1-3.1-6.9c-1.6,0.7-2.5,1-4.1,1.7
			c-0.8-1.8-1.1-2.7-1.9-4.6c4.9-2,7.3-3,12-5.3C-484.2,308.4-482.7,311.4-479.7,317.4z"/>
		<path class="st1" d="M-457.7,306.4c-0.7-0.6-1-1-1.7-1.6c-0.1,0-0.1,0-0.1,0.1c-0.9,2.6-3,4.8-6,6.5c-5.1,2.8-10.3,2.2-12.2-1.4
			c-2.7-5.2,3.6-11.2,10.5-15.4c-0.1-0.2-0.2-0.3-0.3-0.4c-0.9-1.5-3-1.7-5.9-0.1c-2.5,1.4-4.3,2.9-5.7,4.6
			c-1.4-1.1-2.1-1.7-3.5-2.8c1.4-1.5,4.5-4.3,8.6-6.7c9.1-5.3,13.2-2.6,15.7,1.2c1.9,2.8,2.9,4.2,4.8,7c1,1.5,2.2,2.9,3.5,3.9
			C-453,303.4-454.5,304.4-457.7,306.4z M-464.7,297.7c-2.8,1.8-6.4,4.5-4.8,7.2c1.1,2,3.4,1.7,4.7,0.9c1.4-0.8,2.7-2.3,2.6-3.8
			c0-0.3-0.2-0.7-0.4-1C-463.5,299.8-463.9,299.1-464.7,297.7z"/>
		<path class="st1" d="M-454,268.8c1.2,1.5,0.4,3.9-1.8,5.6c-2,1.5-4.5,1.6-5.6,0.1c-1.2-1.6-0.2-3.9,1.8-5.4
			C-457.6,267.5-455.2,267.3-454,268.8z M-444.3,297.5c-5.3-7.3-8-11-13.4-18.3c3.1-2.2,4.6-3.3,7.5-5.7c5.7,7.1,8.5,10.6,14.2,17.7
			C-439.3,293.8-441,295.1-444.3,297.5z"/>
		<path class="st1" d="M-431.2,270.3c0,0,0.1-0.1,0.1-0.1c-0.4-1.4-0.6-2.5-0.8-3.6c-0.5-3.3-0.8-4.9-1.4-8.1
			c2.9-2.9,4.3-4.4,7.1-7.5c0.5,5.1,0.6,7.7,0.8,13c6.4,1,9.7,1.4,16.3,1.9c-3.2,3.5-4.8,5.3-8.2,8.6c-4.2-1-6.3-1.6-10.5-2.8
			c0,1,0.1,1.6,0.1,2.6c2,2.2,3,3.2,5,5.4c-3.1,2.9-4.7,4.3-7.8,7c-6.9-8.1-13.9-16.3-20.8-24.4c2.8-2.3,4.1-3.5,6.8-6
			C-439.2,261.9-436.5,264.7-431.2,270.3z"/>
		<path class="st1" d="M-419.1,242.8c3.5,1.9,5.3,2.8,8.8,4.6c2.2,1.1,4.3,2.2,6.2,3.2c0.1-0.1,0.1-0.1,0.1-0.2
			c-1.3-1.8-2.7-4-4-5.9c-2.3-3.5-3.5-5.2-5.8-8.7c1.8-2.4,2.7-3.7,4.4-6.2c3.9,1.2,5.8,1.7,9.7,2.8c2.5,0.8,4.8,1.4,6.9,2.2
			c0.1-0.1,0.1-0.1,0.1-0.2c-1.6-1.4-3.3-3.1-5-5c-2.7-2.9-4.1-4.4-6.9-7.3c2.1-3.4,3.1-5.1,5-8.6c5.9,8,8.7,12.1,14.1,20.6
			c-2,3.2-3,4.8-5.1,7.9c-3.3-0.8-4.9-1.2-8.2-2.1c-2.2-0.6-4.5-1.4-6.9-2.5c0,0.1-0.1,0.1-0.1,0.1c1.9,1.9,3.2,4.1,4.4,6
			c1.7,3,2.6,4.5,4.2,7.5c-2.2,3-3.4,4.4-5.7,7.3c-9.5-2.8-14.1-4.3-23.2-7.8C-423,247.6-421.7,246-419.1,242.8z"/>
		<path class="st1" d="M-369.7,204.3c-0.9-0.1-1.4-0.2-2.3-0.4c0,0.1,0,0.1-0.1,0.2c0.6,2.9,0,6.4-1.6,9.8
			c-2.8,5.8-7.6,8.6-11.1,6.6c-5.1-2.9-2.9-12.2,0.8-20.6c-0.2-0.1-0.3-0.1-0.5-0.2c-1.6-0.7-3.5,0.5-5.1,3.8
			c-1.4,2.9-2.1,5.4-2.4,7.8c-1.8-0.1-2.7-0.1-4.5-0.3c0.4-2.2,1.6-6.7,3.8-11.6c5-10.8,9.9-11.1,14.1-9.3c3.1,1.3,4.7,1.9,7.8,3.2
			c1.7,0.7,3.4,1.2,5,1.3C-367.3,198.4-368.1,200.4-369.7,204.3z M-380.3,201.1c-1.5,3.4-3.1,8.2-0.3,9.7c2,1,3.8-0.7,4.5-2.3
			c0.8-1.6,1.1-3.9,0.2-5.1c-0.2-0.3-0.5-0.5-0.9-0.7C-378.2,202.1-378.9,201.8-380.3,201.1z"/>
		<path class="st1" d="M-385.4,148.4c9.9,2.1,14.8,3.1,24.6,5.1c2.1,0.4,4.5,0.8,6.6,1c-0.9,4.3-1.4,6.4-2.4,10.6c-1,0-1.6,0-2.6,0
			c0,0.1,0,0.1,0,0.2c1.1,2,1.5,6,0.3,10c-2.7,9.4-9.3,11.6-15.2,9.4c-7.3-2.7-8.9-9.8-6.9-16.6c1-3.5,2.5-5.5,4-6.2
			c0-0.1,0-0.1,0-0.2c-4.3-1.2-6.5-1.7-10.8-2.9C-386.8,154.8-386.3,152.7-385.4,148.4z M-370.5,163.6c-0.4-0.1-0.9-0.3-1.3-0.3
			c-1.4,0-3,1.1-3.6,3.3c-1.1,3.9,1.4,6.2,4.9,7.3c4.1,1.3,6.9-0.2,7.8-3.5c0.4-1.4,0.2-3.3-0.8-4.5c-0.2-0.3-0.7-0.6-1.2-0.7
			C-367,164.5-368.2,164.2-370.5,163.6z"/>
	</g>
</g>
<g>
	<g>
		<path class="st2" d="M-595.8-14.5c0,0,4.3-6.4,10.7-1.6c2.4,1.9,3.6-0.3,4.3-0.7c0.3-0.3,4.5-3.4,9.3,1.9
			c4.8,5.3,56.4,77.1,56.4,77.1s7,6,1.3,17.9c-5.6,11.8-23,49.7-23,49.7s-2.1,2.9,1.7,6.3c3.9,3.4,13,16.8,13,16.8l-55.8-0.4
			c0,0-3.5-0.1-4.3-4.8c-0.9-4.8-1.3-6.4-1.3-6.4l-2,8.9c0,0-1.3,2.6-3.7,2.2c-2.5-0.3-55.6,0.5-55.6,0.5l14.1-18.3c0,0,2-2,0.6-5.3
			c-1.5-3.2-23.6-51.3-23.6-51.3s-4.7-7.4,1.7-15.6C-645.6,54.2-595.8-14.5-595.8-14.5L-595.8-14.5z M-583.4,33.9L-583.4,33.9
			l-6.9,63.5c0,0,4.8,3.2,6.9,8c1-3.7,6.7-8.3,6.7-8.3L-583.4,33.9z"/>
		<path class="st1" d="M-617.6,173.9h-12.7V170c0-1.8-0.2-2.9-0.5-3.5c-0.3-0.5-0.9-0.7-1.6-0.7c-0.9,0-1.5,0.3-1.9,1
			c-0.4,0.6-0.6,1.6-0.6,3c0,1.7,0.2,3.1,0.7,3.9c0.5,0.9,1.7,2,3.9,3.2c6.1,3.6,9.9,6.5,11.4,8.9c1.6,2.3,2.4,6,2.4,11.1
			c0,3.8-0.5,6.5-1.3,8.2c-0.9,1.8-2.5,3.2-5.1,4.5c-2.5,1.2-5.4,1.7-8.8,1.7c-3.6,0-6.7-0.6-9.3-2c-2.6-1.3-4.3-3.1-5.1-5.3
			c-0.8-2.1-1.3-5.1-1.3-9v-3.5h12.7v6.4c0,2,0.2,3.2,0.6,3.8c0.3,0.5,0.9,0.9,1.9,0.9c0.9,0,1.6-0.4,2-1.1c0.5-0.7,0.7-1.7,0.7-3.1
			c0-3.1-0.4-5.1-1.3-6s-3-2.5-6.4-4.7c-3.4-2.3-5.6-3.8-6.7-4.9c-1.1-1-2.1-2.4-2.8-4.2c-0.7-1.8-1.1-4.1-1.1-6.8
			c0-4,0.6-6.9,1.6-8.8c1-1.8,2.7-3.3,5-4.3c2.3-1,5.1-1.6,8.3-1.6c3.6,0,6.6,0.6,9,1.7c2.5,1.2,4.2,2.6,5,4.3
			c0.8,1.7,1.3,4.6,1.3,8.8V173.9z M-612.2,158L-612.2,158h22.7v10.4h-9.1v10h8.5v9.9h-8.5v11.5h10v10.4h-23.7V158z M-552.2,158
			L-552.2,158l-6.9,52.2h-20.7l-7.9-52.2h14.4c1.7,14.4,2.8,26.5,3.6,36.5c0.8-10,1.5-19,2.3-26.8l0.9-9.7H-552.2z M-527.2,158
			L-527.2,158l7.8,52.2h-14l-0.7-9.3h-4.9l-0.8,9.3h-14.1l6.9-52.2H-527.2z M-534.4,191.6L-534.4,191.6c-0.6-6-1.3-13.3-2.1-22
			c-1.3,10.1-2.2,17.4-2.5,22H-534.4z"/>
	</g>
</g>
<g>
	<g>
		<path class="st3" d="M134.8,39c0,0,4.3-6.4,10.7-1.6c2.4,1.9,3.6-0.3,4.3-0.7c0.3-0.3,4.5-3.4,9.3,1.9
			c4.8,5.3,56.4,77.1,56.4,77.1s7,6,1.3,17.9c-5.6,11.8-23,49.7-23,49.7s-2.1,2.9,1.7,6.3c3.9,3.4,13,16.8,13,16.8l-55.8-0.4
			c0,0-3.5-0.1-4.3-4.8c-0.9-4.8-1.3-6.4-1.3-6.4l-2,8.9c0,0-1.3,2.6-3.7,2.2c-2.5-0.3-55.6,0.5-55.6,0.5l14.1-18.3c0,0,2-2,0.6-5.3
			c-1.5-3.2-23.6-51.3-23.6-51.3s-4.7-7.4,1.7-15.6C85,107.7,134.8,39,134.8,39L134.8,39z M147.2,87.4L147.2,87.4l-6.9,63.5
			c0,0,4.8,3.2,6.9,8c1-3.7,6.7-8.3,6.7-8.3L147.2,87.4z"/>
		<path class="st4" d="M112.9,227.3h-12.7v-3.9c0-1.8-0.2-2.9-0.5-3.5c-0.3-0.5-0.9-0.7-1.6-0.7c-0.9,0-1.5,0.3-1.9,1
			c-0.4,0.6-0.6,1.6-0.6,3c0,1.7,0.2,3.1,0.7,3.9c0.5,0.9,1.7,2,3.9,3.2c6.1,3.6,9.9,6.5,11.4,8.9c1.6,2.3,2.4,6,2.4,11.1
			c0,3.8-0.5,6.5-1.3,8.2c-0.9,1.8-2.5,3.2-5.1,4.5c-2.5,1.2-5.4,1.7-8.8,1.7c-3.6,0-6.7-0.6-9.3-2c-2.6-1.3-4.3-3.1-5.1-5.3
			c-0.8-2.1-1.3-5.1-1.3-9V245H96v6.4c0,2,0.2,3.2,0.6,3.8c0.3,0.5,0.9,0.9,1.9,0.9c0.9,0,1.6-0.4,2-1.1c0.5-0.7,0.7-1.7,0.7-3.1
			c0-3.1-0.4-5.1-1.3-6c-0.9-0.9-3-2.5-6.4-4.7c-3.4-2.3-5.6-3.8-6.7-4.9c-1.1-1-2.1-2.4-2.8-4.2c-0.7-1.8-1.1-4.1-1.1-6.8
			c0-4,0.6-6.9,1.6-8.8c1-1.8,2.7-3.3,5-4.3c2.3-1,5.1-1.6,8.3-1.6c3.6,0,6.6,0.6,9,1.7c2.5,1.2,4.2,2.6,5,4.3
			c0.8,1.7,1.3,4.6,1.3,8.8V227.3z M118.4,211.5L118.4,211.5h22.7v10.4H132v10h8.5v9.9H132v11.5h10v10.4h-23.7V211.5z M178.4,211.5
			L178.4,211.5l-6.9,52.2h-20.7l-7.9-52.2h14.4c1.7,14.4,2.8,26.5,3.6,36.5c0.8-10,1.5-19,2.3-26.8l0.9-9.7H178.4z M203.4,211.5
			L203.4,211.5l7.8,52.2h-14l-0.7-9.3h-4.9l-0.8,9.3h-14.1l6.9-52.2H203.4z M196.1,245L196.1,245c-0.6-6-1.3-13.3-2.1-22
			c-1.3,10.1-2.2,17.4-2.5,22H196.1z"/>
	</g>
</g>
<circle class="st5" cx="-583.5" cy="96.7" r="186.9"/>
<g>
	<g>
		<path class="st1" d="M-811,47c0,0.1,0,0.2,0,0.3c0.4,5.8,0.7,8.6,1.3,14.4c-2.6,0.8-3.9,1.3-6.4,2.1c-1-8.1-1.3-12.1-1.7-20.1
			c1.1-5.9,1.7-8.8,3-14.5c12.5,3.3,25,6.5,37.6,9.8c-1.3,5.4-1.8,8.1-2.8,13.7C-790.4,50.8-800.7,48.9-811,47z"/>
		<path class="st1" d="M-776.1-19.7c9.4,5.4,13.7,16.6,9.6,26.7c-4.1,10.1-14.9,15.2-25.2,11.6C-803.9,14.5-807,1-802.6-10
			C-798.2-21.1-786.3-25.6-776.1-19.7z M-787,4.7c8.2,3.5,12.8,3.4,14.6-0.7c1.6-3.9-1.6-7-9.7-10.9c-7.5-3.6-12.6-4.5-14.5,0
			C-798.4-2.6-795.2,1.2-787,4.7z"/>
		<path class="st1" d="M-751.4-55.8c7.8,6.8,10.7,18.2,4.6,27.1c-6.2,8.9-17.7,10.2-26.6,5c-10.4-6.1-12.3-19.3-5.6-28.9
			C-772.3-62.5-760-63.2-751.4-55.8z M-766.4-35.5c7.4,5.1,11.9,6.1,14.3,2.6c2.3-3.2-0.4-6.9-7.5-12.4c-6.7-5.1-11.4-7-14.1-3.3
			C-776.2-44.9-773.8-40.6-766.4-35.5z"/>
		<path class="st1" d="M-715.8-63.5c-12.6-7.2-25.4-13.7-38.6-19.7c4.5-4.4,6.8-6.5,11.5-10.6c6.2,4,9.2,6,15.2,10.2
			c3.7,2.6,7.9,5.6,11.6,8.8c0.1,0,0.1-0.1,0.1-0.1c-2.4-4.3-4.6-8.7-6.4-13.1c-2.8-6.6-4.2-9.9-6.7-16.6c5-3.6,7.5-5.3,12.7-8.6
			c3,14.1,6.6,27.8,10.9,41.6C-709.7-68.5-711.8-66.9-715.8-63.5z"/>
		<path class="st1" d="M-674.9-109.5c-5.4,2.3-8.1,3.6-13.4,6.3c2.1,3.8,3.1,5.8,5.2,9.6c5.7-2.9,8.5-4.3,14.4-6.7
			c1.1,2.5,1.7,3.7,2.8,6.2c-9.9,4.2-14.8,6.6-24,12.1c-7.1-11.5-14.3-23-21.4-34.5c8.9-5.3,18.2-10,27.7-14.1
			c1.1,2.5,1.7,3.7,2.8,6.2c-6.1,2.6-9.2,4-15.1,7.1c1.8,3.3,2.7,4.9,4.4,8.2c5.4-2.8,8.2-4.1,13.8-6.5
			C-676.5-113.1-676-111.9-674.9-109.5z"/>
		<path class="st1" d="M-660.5-139c2.1,6.1,3.1,9.2,5.2,15.3c5.2-1.6,7.8-2.4,13-3.7c-1.7-6.2-2.5-9.3-4.2-15.6
			c5.4-1.4,8.1-2,13.5-3c2.8,13.1,5.5,26.3,8.3,39.4c-4.5,0.9-6.8,1.4-11.3,2.5c-1.8-6.5-2.6-9.8-4.4-16.3c-5.1,1.3-7.6,2-12.6,3.6
			c2.2,6.4,3.2,9.6,5.4,16c-4.4,1.4-6.6,2.1-10.9,3.8c-5-12.5-10.1-25-15.1-37.5C-668.4-136.4-665.8-137.3-660.5-139z"/>
		<path class="st1" d="M-607.1-149.6c1.3,13.3,2.6,26.7,3.9,40c-4.6,0.4-6.9,0.7-11.5,1.4c-2.1-13.2-4.2-26.5-6.3-39.7
			C-615.4-148.8-612.6-149.1-607.1-149.6z"/>
		<path class="st1" d="M-564.3-110.2c-1.7,0.4-5.1,0.5-9.1,0.3c-11.6-0.3-22.8-7.3-23.6-19.7c-1-15.2,14.8-21.8,27.6-21
			c4.8,0.3,8.2,1.1,9.5,1.8c-1.2,2.5-1.8,3.8-2.9,6.3c-1.5-0.5-3.2-1-6.2-1.2c-7.6-0.4-14.5,3.4-14.5,13.4c0,9.6,5.6,13.3,12.8,13.7
			c2,0.1,4.3,0,5.8-0.2C-564.6-114.2-564.5-112.9-564.3-110.2z"/>
		<path class="st1" d="M-552.9-148.8c5.5,0.7,8.3,1.1,13.7,2c-2.1,11-4.1,22-6.2,33c6.2,1.1,9.3,1.7,15.4,3.2
			c-0.7,2.6-1,3.8-1.7,6.4c-10.4-2.6-15.7-3.5-26.4-4.8C-556.3-122.2-554.6-135.5-552.9-148.8z"/>
		<path class="st1" d="M-494.2-110.4c-5.5-2.3-8.2-3.3-13.8-5.3c-1.5,4.1-2.3,6.1-3.8,10.2c6,2.1,9,3.2,14.8,5.7
			c-1.1,2.5-1.7,3.7-2.8,6.2c-9.9-4.3-15-6-25.3-9c3.9-12.9,7.8-25.7,11.7-38.6c10,2.8,19.7,6.2,29.3,10.3c-1.1,2.5-1.7,3.7-2.8,6.2
			c-6.1-2.6-9.3-3.8-15.6-6c-1.3,3.5-1.9,5.2-3.2,8.7c5.8,2,8.6,3.1,14.2,5.4C-492.6-113.9-493.1-112.7-494.2-110.4z"/>
		<path class="st1" d="M-490.3-98c1.8,1.9,5.3,4.3,8.4,5.9c5,2.7,8.3,2.5,9.7,0.2c1.5-2.5-0.1-5.3-3.8-9.7c-6-7.1-7.7-12.8-5.9-15.6
			c4.9-7.9,17.6-4.9,25.3-0.2c3.9,2.4,7.4,5.4,8.8,7.1c-2.3,1.8-3.4,2.7-5.6,4.5c-1.2-1.7-3.4-3.8-6.8-5.8c-5-2.9-8.5-2.4-9.6-0.5
			c-1.2,2.1,0.1,4.1,4.9,10c5.9,7.2,6,12.5,3.6,16c-4.2,6.1-13.6,5.4-23.9,0c-4.2-2.2-8-5-9.5-6.5C-493-94.8-492.1-95.8-490.3-98z"
			/>
		<path class="st1" d="M-447.3-70.7c1.3,2.3,4.1,5.6,6.7,8c4.2,3.9,7.5,4.6,9.4,2.8c2.1-2.1,1.2-5.3-1.4-10.6
			c-4.1-8.6-4.4-14.6-2-16.8c6.8-6.5,18.4-0.2,24.7,6.4c3.2,3.4,5.9,7.3,6.8,9.4c-2.6,1.1-4,1.7-6.6,2.9c-0.8-2-2.4-4.7-5.2-7.6
			c-4.2-4.2-7.7-4.6-9.2-3c-1.7,1.8-0.9,4,2.3,11.2c4,8.7,2.8,14-0.4,16.8c-5.6,4.9-14.6,1.6-23.3-6.4c-3.6-3.3-6.6-7-7.7-8.8
			C-450.8-68.3-449.6-69.1-447.3-70.7z"/>
		<path class="st1" d="M-413.2-35.7c-3.7,1.2-5.5,1.9-9.1,3.2c-2.8-3.8-4.2-5.6-7.2-9.2c13.5-5.2,27-9.7,40.9-13.6
			c4.1,5.7,6.1,8.6,9.8,14.7c-9,11.3-18.2,22.1-28.1,32.7c-2.3-4.4-3.5-6.5-5.9-10.6c2.6-2.9,3.8-4.4,6.3-7.4
			C-409.2-29.9-410.5-31.9-413.2-35.7z M-402.1-30.2c2.4-2.6,3.5-4,5.8-6.6c1.6-2,4.5-5.1,6.3-7.2c-0.1-0.1-0.1-0.2-0.2-0.3
			c-2.7,0.9-6.7,2.4-9,3.2c-3.3,1.1-5,1.7-8.3,2.8C-405.3-35.1-404.2-33.5-402.1-30.2z"/>
		<path class="st1" d="M-367.7-19.7c2.6,5.6,3.9,8.4,6.2,14.3c-10.3,4.4-20.7,8.8-31,13.3c2.6,6.7,3.8,10.1,5.9,17.2
			c-2.5,0.8-3.8,1.2-6.3,2.1c-2.9-9.8-6.5-19.3-10.9-28.5C-391.8-7.5-379.7-13.6-367.7-19.7z"/>
		<path class="st1" d="M-367.5,63.1c-0.9-7.5-1.5-11.2-2.9-18.3c-4.3,0.9-6.4,1.3-10.6,2.2c1.5,7.7,2.1,11.6,3,19.7
			c-2.7,0.3-4.1,0.4-6.8,0.7c-1.5-11.1-3.4-21.8-6-32.8c12.9-3.7,25.8-7.3,38.7-11c3.2,12.4,5.5,25,7,37.7c-2.7,0.3-4.1,0.5-6.8,0.8
			c-1-8.5-1.6-12.6-3.2-20.7c-3.6,0.8-5.4,1.1-9.1,1.9c1.4,7.4,2,11.1,2.9,18.9C-363.7,62.7-365,62.8-367.5,63.1z"/>
	</g>
</g>
<ellipse transform="matrix(0.2298 -0.9732 0.9732 0.2298 -725.4257 -709.1855)" class="st1" cx="-810.8" cy="103.7" rx="18.3" ry="18.3"/>
<ellipse transform="matrix(0.2298 -0.9732 0.9732 0.2298 -374.1933 -265.3841)" class="st1" cx="-354.8" cy="103.7" rx="18.3" ry="18.3"/>
</svg>
